<svg width="18" height="14" viewBox="0 0 18 14" xmlns="http://www.w3.org/2000/svg"><path d="M16 5.384c0-.16-.075-.31-.2-.403L9.287.097c-.17-.128-.403-.128-.574 0L2.2 4.982c-.126.093-.2.243-.2.402V13.5c0 .276.218.5.486.5h13.027c.13 0 .253-.053.344-.147.09-.093.143-.22.143-.352V5.385zM9 1.117l6.027 4.52v.6L10.89 9.295l3.3 2.156c.228.147.296.455.153.69-.092.15-.25.232-.412.232-.088 0-.177-.025-.258-.077l-4.666-3.01-4.66 3.01c-.08.052-.17.077-.258.077-.162 0-.32-.082-.413-.233-.143-.235-.074-.542.153-.69l3.29-2.155-4.145-3.058v-.6L9 1.118z" fill="#FFF" fill-rule="evenodd"/></svg>