<svg width="18" height="14" viewBox="0 0 18 14" xmlns="http://www.w3.org/2000/svg"><path d="M13.648 0H4.352C3.058 0 2 1.058 2 2.352v9.296C2 12.942 3.058 14 4.352 14h9.296C14.942 14 16 12.942 16 11.648V2.352C16 1.058 14.942 0 13.648 0zM6.87 10.918H5.09V4.683h1.78v6.235zm-.89-7.126c-.492 0-.89-.4-.89-.89 0-.493.398-.89.89-.89s.89.397.89.89c0 .49-.398.89-.89.89zm7.334 7.126h-1.78V7.355c0-.492-.4-.89-.892-.89s-.89.398-.89.89v3.563H7.97V4.683h1.78V5.79c.37-.506.93-1.107 1.56-1.107 1.107 0 2.004.997 2.004 2.227v4.008z" fill="#FFF" fill-rule="evenodd"/></svg>