<svg width="18" height="14" viewBox="0 0 18 14" xmlns="http://www.w3.org/2000/svg"><path d="M17.476 1.657c-.633.28-1.315.47-2.03.557.73-.438 1.29-1.13 1.554-1.956-.683.405-1.44.7-2.244.858C14.11.43 13.193 0 12.176 0c-1.95 0-3.534 1.583-3.534 3.534 0 .277.032.547.092.805C5.797 4.19 3.192 2.785 1.45.646c-.305.522-.48 1.13-.48 1.776 0 1.227.625 2.308 1.573 2.943-.58-.02-1.124-.178-1.6-.443v.045c0 1.712 1.217 3.14 2.834 3.466-.296.08-.61.123-.93.123-.23 0-.45-.02-.666-.063.45 1.404 1.756 2.426 3.302 2.455-1.21.947-2.733 1.51-4.39 1.51-.284 0-.565-.016-.842-.048C1.814 13.415 3.672 14 5.667 14c6.5 0 10.056-5.385 10.056-10.057 0-.153-.003-.305-.01-.457.69-.498 1.29-1.12 1.763-1.83z" fill="#FFF" fill-rule="evenodd"/></svg>