<svg width="18" height="14" viewBox="0 0 18 14" xmlns="http://www.w3.org/2000/svg"><g fill="#FFF" fill-rule="evenodd"><path d="M2.4 2.522c.586.586 1.536.586 2.122 0 .586-.586.586-1.536 0-2.12-.586-.587-1.536-.587-2.12 0-.587.584-.587 1.534 0 2.12zm5.9-.457L7.276 1.043c-.4-.4-1.022-.395-1.41-.008l-2.84 2.84c-.383.383-.384 1.02.008 1.41L6.567 8.82c.4.4 1.023.395 1.41.008l.342-.343-1.807-1.806c-.78-.78-.78-2.047 0-2.825l1.786-1.787zM15.393 11.29c-.586-.587-1.536-.587-2.12 0-.587.584-.587 1.534 0 2.12.584.586 1.534.586 2.12 0 .586-.586.586-1.536 0-2.12zm-5.898.456l1.02 1.02c.4.4 1.024.397 1.41.01l2.842-2.84c.382-.383.383-1.02-.008-1.41l-3.533-3.533c-.4-.4-1.023-.396-1.41-.01l-.343.344 1.807 1.807c.78.78.78 2.046 0 2.825l-1.785 1.786z"/><path d="M13.28.41c-.586.585-.586 1.535 0 2.12.586.586 1.536.586 2.12 0 .587-.585.587-1.535 0-2.12-.584-.587-1.534-.587-2.12 0zm.457 5.898l1.022-1.022c.398-.4.394-1.023.007-1.41l-2.84-2.84c-.383-.383-1.02-.384-1.41.007L6.983 4.575c-.4.4-.395 1.023-.008 1.41l.343.343L9.124 4.52c.78-.78 2.047-.778 2.825 0l1.787 1.788zM4.513 13.4c.586-.584.586-1.534 0-2.12-.585-.586-1.535-.586-2.12 0-.587.586-.587 1.536 0 2.12.585.587 1.535.587 2.12 0zm-.457-5.897l-1.02 1.022c-.4.4-.397 1.023-.01 1.41l2.842 2.84c.38.383 1.018.384 1.41-.008l3.53-3.532c.4-.4.397-1.022.01-1.41l-.343-.342L8.668 9.29c-.78.78-2.046.78-2.825 0L4.056 7.503z" fill-opacity=".75"/></g></svg>