<svg width="18" height="14" viewBox="0 0 18 14" xmlns="http://www.w3.org/2000/svg"><path d="M15.76 2.88c-.01-.066-.02-.13-.034-.195l-.022-.09c-.178-.657-.68-1.132-1.27-1.132h.093S12.155 1.018 9 1c-3.155.018-5.528.463-5.528.463h.093c-.59 0-1.09.475-1.27 1.133l-.02.09c-.015.063-.026.128-.034.194C2.156 3.645 2.014 5.17 2 7c.013 1.83.155 3.354.24 4.12.01.066.02.13.034.194l.022.09c.178.658.678 1.133 1.27 1.133H3.47S5.845 12.982 9 13c3.156-.02 5.528-.463 5.528-.463h-.092c.59 0 1.09-.475 1.268-1.134.008-.03.016-.058.022-.09.014-.063.025-.127.033-.193.085-.766.227-2.29.24-4.12-.013-1.83-.155-3.356-.24-4.12zm-4.486 4.492l-3.512 2.55c-.074.055-.16.082-.25.082-.064 0-.13-.016-.19-.046-.142-.072-.23-.218-.23-.377v-5.1c0-.16.088-.305.23-.378.14-.072.31-.058.44.035l3.512 2.55c.11.08.174.208.174.343 0 .135-.064.262-.174.342z" fill="#FFF" fill-rule="evenodd"/></svg>