<svg width="64" height="64" viewbox="0 0 64 64" xmlns="http://www.w3.org/2000/svg"><g fill-rule="nonzero" fill="none"><path d="M64 32a32 32 0 1 1-64 0 32 32 0 0 1 64 0" fill="#02539C"/><path d="M20.5 34.3v-6.5c0-1-.2-1.5-.7-1.5h-1v-.9h4v1H22l-.5.1v13.2c0 .2 0 .3-.2.3-.3 0-.6-.4-.8-.6l-9.8-10.7v8.7c0 1 .2 1.4.7 1.4h1v.9h-4v-.9H9c.2 0 .5 0 .5-.2v-9.5c0-2.8-1.7-2.8-2.2-2.8v-.9h4.8l8.3 8.9zM28.3 27.7c0-1.4-.4-1.4-.6-1.4h-1.1v-.9h11.3l-.2 1.7c0 .3 0 1-.4 1-.3 0-.4-.1-.4-.4 0-.5-.2-.6-.7-.8-1.1-.4-2.1-.4-3.9-.4-.3 0-.4 0-.4.4v4.7H33c2.5 0 2.6-.2 2.6-1V30h.7v4h-.7v-.4c0-.7 0-1-1.8-1h-2v2.8c0 3 .1 3.5.6 3.5 2.1 0 4.9 0 5.6-1.3 0-.2.2-.3.3-.3.2 0 .3 0 .3.3l-.5 2.3h-11v-1c1 0 1.1 0 1.1-.2v-11z" fill="#FFF"/><path d="M42.6 38.8c1 0 1.1 0 1.1-.2v-11c0-1.3-.4-1.3-.7-1.3h-1v-.9h6.9c5.5 0 8 3.3 8 7 0 2.6-1.5 7.3-8 7.3h-6.3v-.9zm4.6-3.6c0 3 .1 3.5.6 3.5h.7c3.2 0 4.6-2.4 4.6-5.4 0-6-4.3-6.9-5.4-6.9-.4 0-.5 0-.5.3v8.5z" fill="#EF3925"/></g></svg>