<svg width="172" height="40" viewbox="0 0 172 40" xmlns="http://www.w3.org/2000/svg"><g fill-rule="nonzero" fill="none"><g fill="#333"><path d="M2.2 17.4l-.1-5.5h4l.2 2.7h.1c1-1.4 2.6-3.1 5.7-3.1 2.4 0 4.3 1.4 5.1 3.4h.1a7 7 0 0 1 2.3-2.3c1-.7 2.2-1.1 3.7-1.1 3.1 0 6.2 2 6.2 8v10.9H25V20.2c0-3.1-1.1-5-3.3-5-1.6 0-2.8 1.2-3.3 2.5l-.2 1.6v11h-4.6V19.8c0-2.6-1-4.4-3.2-4.4-1.8 0-3 1.3-3.4 2.6a4 4 0 0 0-.2 1.6v10.9H2.2v-13zM36.8 11.9l3.3 9.9c.4 1.1.8 2.5 1 3.6h.2l1-3.6 2.9-9.9h5l-4.7 12.6c-2.5 6.9-4.2 10-6.4 11.9a9.4 9.4 0 0 1-5 2.4l-1-4a8.1 8.1 0 0 0 5.3-4.2l.3-.8c0-.2 0-.5-.3-1L31.7 12h5.1z"/></g><g fill="#333"><path d="M53 25.3a13 13 0 0 0 6.2 1.6c3 0 4.6-1.4 4.6-3.5 0-1.9-1.2-3-4.5-4.2-4.2-1.5-7-3.8-7-7.4 0-4.2 3.6-7.4 9.1-7.4 2.8 0 4.8.6 6.2 1.3l-1.2 3.7c-.9-.5-2.7-1.2-5-1.2-3 0-4.3 1.6-4.3 3.1 0 2 1.5 2.9 4.9 4.2 4.4 1.7 6.6 4 6.6 7.6 0 4-3.1 7.7-9.7 7.7-2.7 0-5.6-.8-7-1.6l1-4zM108 29.8c-1 .5-3 1-5.3 1-5.8 0-9.6-3.7-9.6-9.5 0-5.5 3.8-9.8 10.3-9.8 1.8 0 3.5.4 4.6.9l-.9 3.4c-.7-.3-1.8-.7-3.5-.7-3.6 0-5.7 2.6-5.7 6 0 3.8 2.5 6 5.7 6 1.6 0 2.8-.4 3.7-.7l.6 3.4zM111.4 30.4V11.9h4.7v18.5zM116.4 6.7c0 1.4-1 2.5-2.7 2.5-1.5 0-2.6-1-2.6-2.5 0-1.4 1.1-2.5 2.7-2.5s2.5 1.1 2.6 2.5zM124.4 22.4c.2 3.4 2.8 4.8 5.8 4.8a14 14 0 0 0 5-.8l.8 3.2c-1.6.7-3.8 1.2-6.5 1.2-6 0-9.5-3.7-9.5-9.4 0-5.1 3-10 9-10s8 5 8 9c0 1 0 1.6-.2 2h-12.4zm8.2-3.2c0-1.7-.7-4.5-3.9-4.5-2.8 0-4 2.6-4.3 4.5h8.2zM146.1 7.2v4.7h4.5v3.5H146v8.2c0 2.2.6 3.4 2.4 3.4.9 0 1.3-.1 1.9-.3v3.6c-.7.3-1.9.5-3.4.5-1.7 0-3.1-.6-4-1.6-1-1-1.4-2.7-1.4-5.1v-8.7h-2.7v-3.5h2.7V8.5l4.5-1.3zM157.3 11.9l3.4 9.9 1 3.6h.1l1-3.6 2.9-9.9h5l-4.6 12.6c-2.6 6.9-4.3 10-6.5 11.9a9.4 9.4 0 0 1-5 2.4l-1-4a8 8 0 0 0 2.8-1.3c.8-.5 1.9-1.6 2.5-2.9l.3-.8c0-.2 0-.5-.3-1L152.2 12h5.1z"/></g><g transform="translate(70 10.5)"><path d="M10.5.2a2.4 2.4 0 1 1 0 4.8 2.4 2.4 0 0 1 0-4.8z" fill="#ED1C24"/><path d="M10.5 16.1a2.4 2.4 0 1 1 0 4.8 2.4 2.4 0 0 1 0-4.8z" fill="#29ABE2"/><path d="M16.2 2.6a2.4 2.4 0 1 1 0 4.8 2.4 2.4 0 0 1 0-4.8z" fill="#F7931E"/><path d="M6.5 17.8c-1 1-2.4 1-3.4 0-.9-1-.9-2.5 0-3.4 1-.9 2.5-.9 3.4 0 1 1 1 2.5 0 3.4z" fill="#662D91"/><path d="M18.5 8.1a2.4 2.4 0 1 1 0 4.8 2.4 2.4 0 0 1 0-4.8z" fill="#FCEE21"/><ellipse fill="#93278F" cx="2.6" cy="10.6" rx="2.4" ry="2.4"/><path d="M14.5 17.9a2.4 2.4 0 1 1 3.4-3.4 2.4 2.4 0 1 1-3.4 3.4z" fill="#8CC63F"/></g></g></svg>