<svg width="50" height="50" viewbox="0 0 50 50" xmlns="http://www.w3.org/2000/svg"><path d="M22.4.1l-18 3.2A4.2 4.2 0 0 0 .8 8.1l6.8 38.3a4.2 4.2 0 0 0 4.8 3.4l18-3.2a4.2 4.2 0 0 0 3.5-4.8L27.2 3.5A4.2 4.2 0 0 0 22.4 0zM21 46a2.5 2.5 0 1 1-.8-4.9 2.5 2.5 0 0 1 .8 5zm9.1-8.8L9.6 40.7 4.2 10.1l20.6-3.6 5.4 30.6zm6.4-23.7c4.7 3.3 5.9 9.8 2.6 14.5a1.5 1.5 0 1 1-2.5-1.8A7.3 7.3 0 0 0 34.9 16a1.5 1.5 0 0 1 1.7-2.5zm4.5-6.3c8.2 5.7 10.1 17 4.4 25.2-.5.7-1.4.9-2 .4-.8-.5-1-1.4-.5-2.1a15 15 0 0 0-3.6-21A1.5 1.5 0 1 1 41 7z" fill="#FFF" fill-rule="nonzero"/></svg>