<svg width="52" height="52" viewBox="0 0 52 52" xmlns="http://www.w3.org/2000/svg"><title>rep-locator-tooltip</title><g fill="none" fill-rule="evenodd"><circle fill="#CCE4DD" cx="26" cy="26" r="26"/><path d="M31.262 38.067l-.45 1.846c-1.355.533-2.435.94-3.242 1.22-.806.28-1.743.42-2.81.42-1.64 0-2.915-.4-3.824-1.2-.91-.8-1.364-1.814-1.364-3.044 0-.48.034-.97.103-1.468.068-.5.178-1.063.328-1.692l1.682-5.988c.15-.574.276-1.118.38-1.63.102-.513.153-.98.153-1.405 0-.766-.157-1.3-.472-1.6-.314-.3-.916-.45-1.805-.45-.436 0-.884.068-1.342.204-.458.138-.85.268-1.18.39l.452-1.845c1.108-.45 2.167-.837 3.18-1.158 1.01-.322 1.968-.482 2.87-.482 1.627 0 2.88.393 3.763 1.18.882.785 1.323 1.807 1.323 3.065 0 .26-.03.717-.092 1.374-.062.656-.175 1.258-.34 1.804l-1.68 5.968c-.137.48-.26 1.026-.37 1.64-.11.616-.164 1.08-.164 1.395 0 .794.178 1.334.534 1.62.355.29.97.432 1.845.432.41 0 .874-.072 1.394-.215.52-.144.895-.27 1.128-.38zm.43-25.04c0 1.04-.393 1.925-1.18 2.656-.785.732-1.732 1.097-2.84 1.097-1.107 0-2.057-.365-2.85-1.097-.793-.73-1.19-1.617-1.19-2.656 0-1.04.397-1.927 1.19-2.666.793-.737 1.743-1.106 2.85-1.106 1.108 0 2.055.37 2.84 1.107.787.74 1.18 1.628 1.18 2.667z" fill="#007B58"/></g></svg>