<?xml version="1.0" encoding="utf-8"?>
<!DOCTYPE svg PUBLIC "-//W3C//DTD SVG 1.1//EN" "http://www.w3.org/Graphics/SVG/1.1/DTD/svg11.dtd" [
	<!ENTITY st0 "fill:#BF2726;">
	<!ENTITY st1 "opacity:0.1;">
	<!ENTITY st2 "opacity:0.3;">
	<!ENTITY st3 "opacity:0.4;">
	<!ENTITY st4 "fill:#FFFFFF;">
	<!ENTITY st5 "opacity:0.1;fill:#FFFFFF;">
]>
<svg version="1.1" id="Layer_1" xmlns="http://www.w3.org/2000/svg" xmlns:xlink="http://www.w3.org/1999/xlink" x="0px" y="0px"
	 width="474.936px" height="159.709px" viewBox="0 0 474.936 159.709" style="enable-background:new 0 0 474.936 159.709;"
	 xml:space="preserve">
<g>
	<g>
		<g>
			<g style="&st3;">
				<path style="&st5;" d="M109.39,153.945c-41.117,0-74.487-33.09-74.978-74.09c-0.003,0.305-0.022,0.605-0.022,0.911
					c0,41.421,33.578,75,75,75c41.42,0,75-33.578,75-75c0-0.306-0.02-0.606-0.023-0.911
					C183.876,120.855,150.505,153.945,109.39,153.945z"/>
				<circle style="&st1;" cx="109.39" cy="78.944" r="75"/>
			</g>
			<g>
				<g>
					<path style="&st4;" d="M110.362,30v45.445c2.834-1.956,4.98-11.609,4.98-23.232c0-9.505-1.438-17.69-3.514-21.43L110.362,30z
						 M106.851,30.658c-2.111,3.683-3.586,11.935-3.586,21.554c0,11.624,2.15,21.277,4.979,23.232V29.956L106.851,30.658z
						 M108.243,135.189V90.068c-2.828,1.965-4.979,11.617-4.979,23.24c0,9.17,1.342,17.102,3.292,21.006L108.243,135.189z
						 M112.101,134.203c1.926-3.947,3.242-11.814,3.242-20.895c0-11.623-2.146-21.275-4.98-23.24v45.076L112.101,134.203z"/>
					<path style="&st0;" d="M129.649,110.472c-0.412,0.94-0.854,1.895-1.342,2.902c-0.529,1.074-1.078,2.146-1.648,3.177
						c-5.145,9.374-10.887,15.263-14.523,17.651c1.922-3.947,3.236-11.814,3.236-20.895c0-11.623-2.145-21.275-4.977-23.24v45.076
						c-0.449,0.178-0.831,0.279-1.132,0.279c-0.27,0-0.614-0.088-0.993-0.234V90.068c-2.826,1.965-4.977,11.617-4.977,23.24
						c0,9.17,1.337,17.102,3.291,21.006c-3.57-2.272-9.335-8.074-14.515-17.395c-0.559-0.994-1.11-2.061-1.661-3.155
						c-0.53-1.065-1-2.087-1.46-3.11c3.882-9.145,5.854-18.594,5.854-28.076c0-9.492-1.972-18.933-5.854-28.086
						c0.444-1,0.927-2.022,1.456-3.087c0.537-1.088,1.096-2.156,1.654-3.159c5.334-9.595,11.271-15.451,14.814-17.586
						c-2.104,3.683-3.58,11.935-3.58,21.554c0,11.624,2.15,21.277,4.977,23.232V29.956c0.379-0.14,0.724-0.224,0.993-0.224
						c0.301,0,0.68,0.088,1.132,0.268v45.445c2.832-1.956,4.977-11.609,4.977-23.232c0-9.505-1.439-17.69-3.512-21.43
						c3.611,2.25,9.496,8.169,14.764,17.748c0.562,1.029,1.123,2.101,1.654,3.182c0.482,0.993,0.945,1.993,1.371,2.963
						c-3.83,9.103-5.771,18.476-5.771,27.903C123.878,91.987,125.819,101.376,129.649,110.472z"/>
					<path style="&st4;" d="M109.308,75.821c-2.529,0-4.58,3.021-4.58,6.757c0,3.727,2.051,6.748,4.58,6.748
						c2.521,0,4.572-3.021,4.572-6.748C113.88,78.842,111.829,75.821,109.308,75.821z"/>
					<path d="M130.376,114.36c0.584-1.19,1.098-2.315,1.58-3.44l0.191-0.441l-0.135-0.309c3.766-9,5.686-18.285,5.686-27.592
						c0-9.323-1.92-18.594-5.686-27.594l0.135-0.309l-0.191-0.447c-0.492-1.148-1.031-2.332-1.609-3.507
						c-0.113-0.221-0.232-0.434-0.34-0.655l2.072-3.597c1.852-0.07,3.977-1.518,4.861-3.065c1.17-2.019,11.316-23.362,9.301-24.523
						c-2.006-1.162-15.426,18.295-16.592,20.311c-0.889,1.547-1.08,4.109-0.217,5.745l-1.121,1.934
						c-6.729-11.995-15.053-19.402-19.004-19.402c-3.907,0-12.164,7.309-18.865,19.13l-1.1-1.889
						c0.871-1.636,0.677-4.202-0.217-5.746c-1.165-2.014-14.58-21.475-16.586-20.314c-2.023,1.162,8.135,22.513,9.289,24.523
						c0.891,1.544,3.018,2.997,4.867,3.063l2.044,3.54c-0.11,0.211-0.221,0.417-0.319,0.63c-0.629,1.258-1.177,2.448-1.699,3.639
						l-0.184,0.448l0.125,0.309c-3.805,9.05-5.749,18.388-5.749,27.777c0,9.38,1.944,18.717,5.749,27.775l-0.125,0.309l0.184,0.441
						c0.529,1.205,1.085,2.404,1.702,3.66c0.118,0.236,0.235,0.464,0.357,0.699l-12.859,22.3l2.653,1.528l11.914-20.66
						c6.699,11.779,14.926,19.05,18.818,19.05c3.951,0,12.25-7.397,18.982-19.356l12.027,20.799l2.654-1.537l-12.988-22.459
						C130.114,114.867,130.259,114.617,130.376,114.36z M111.894,30.782c3.619,2.25,9.504,8.169,14.775,17.748
						c0.561,1.029,1.109,2.101,1.643,3.182c0.488,0.993,0.955,1.993,1.385,2.963c-3.838,9.103-5.783,18.476-5.783,27.903
						c0,9.409,1.945,18.799,5.783,27.895c-0.418,0.94-0.855,1.895-1.352,2.902c-0.52,1.074-1.076,2.146-1.646,3.177
						c-5.141,9.374-10.895,15.263-14.525,17.651l-1.74,0.941c-0.445,0.178-0.831,0.279-1.125,0.279
						c-0.274,0-0.615-0.088-0.997-0.234l-1.679-0.875c-3.578-2.272-9.341-8.074-14.525-17.395c-0.551-0.994-1.113-2.061-1.664-3.155
						c-0.52-1.065-1-2.087-1.452-3.11c3.89-9.145,5.849-18.594,5.849-28.076c0-9.492-1.959-18.933-5.849-28.086
						c0.448-1,0.915-2.022,1.452-3.087c0.544-1.088,1.096-2.156,1.654-3.159c5.33-9.595,11.271-15.451,14.82-17.586l1.394-0.703
						c0.382-0.14,0.723-0.224,0.997-0.224c0.294,0,0.68,0.088,1.125,0.268L111.894,30.782z"/>
				</g>
			</g>
		</g>
	</g>
	<g style="&st2;">
		<path d="M164.278,51.83c-0.226,0.852-0.492,1.631-0.799,2.338c-0.307,0.707-0.636,1.316-0.985,1.828
			c-0.35,0.512-0.712,0.91-1.085,1.195c-0.374,0.285-0.739,0.428-1.097,0.428c-0.591,0-1.024-0.449-1.301-1.348
			c-0.276-0.898-0.415-2.227-0.415-3.984c0-0.87,0-1.639,0-2.305c0-0.667,0.004-1.333,0.012-1.999s0.007-0.88-0.001-0.643
			c-0.009,0.238-0.017,0.458-0.023,0.659c-0.002,0.049-0.005,0.134-0.009,0.254c-0.004,0.121,0.025,0.061,0.089-0.178
			s0.148-0.488,0.253-0.747c0.106-0.258,0.241-0.494,0.406-0.706c0.165-0.212,0.359-0.388,0.583-0.526
			c0.224-0.139,0.492-0.208,0.805-0.208l0.304,0.023c0.372,0,0.657,0.068,0.855,0.203c0.199,0.136,0.298,0.316,0.298,0.54
			l-0.948,6.815l0.153-0.01c0.345-0.797,0.665-1.604,0.958-2.421c0.294-0.817,0.548-1.487,0.764-2.011s0.423-0.98,0.623-1.371
			c0.199-0.391,0.417-0.715,0.651-0.973s0.499-0.451,0.792-0.58s0.644-0.193,1.051-0.193c0.344,0,0.607,0.068,0.791,0.205
			s0.275,0.318,0.275,0.545l-1.09,6.809l0.176-0.01l2.918-6.729c0.094-0.218,0.297-0.412,0.609-0.58
			c0.312-0.168,0.684-0.252,1.113-0.252c0.445,0,0.805,0.092,1.078,0.275s0.41,0.42,0.41,0.709c0,0.219-0.037,0.453-0.111,0.703
			s-0.154,0.482-0.24,0.697s-0.168,0.398-0.246,0.551s-0.121,0.236-0.129,0.252c-0.172,0.312-0.35,0.68-0.533,1.102
			s-0.33,0.734-0.439,0.938c-0.133,0.234-0.25,0.453-0.352,0.656c0.109,0.305,0.25,0.578,0.422,0.82
			c0.148,0.203,0.332,0.391,0.551,0.562s0.48,0.258,0.785,0.258c0.258,0,0.555-0.068,0.891-0.205s0.652-0.291,0.949-0.463
			c0.352-0.195,0.711-0.418,1.078-0.668v2.827c-0.516,0.345-1.049,0.62-1.6,0.826s-1.08,0.308-1.588,0.308
			c-0.398,0-0.775-0.049-1.131-0.148c-0.355-0.098-0.668-0.254-0.938-0.467c-0.27-0.213-0.484-0.491-0.645-0.831
			c-0.16-0.341-0.244-0.753-0.252-1.237c-0.266,0.625-0.543,1.197-0.832,1.717s-0.586,0.967-0.891,1.342s-0.613,0.668-0.926,0.879
			s-0.625,0.316-0.938,0.316c-0.109,0-0.205-0.084-0.287-0.252s-0.15-0.395-0.205-0.68s-0.1-0.617-0.135-0.996
			s-0.062-0.779-0.082-1.201s-0.033-0.855-0.041-1.301s-0.012-0.879-0.012-1.301L164.278,51.83z"/>
		<path d="M178.336,57.619c-0.729,0-1.368-0.135-1.915-0.406c-0.547-0.27-1.003-0.634-1.368-1.091
			c-0.365-0.457-0.638-0.986-0.821-1.586c-0.182-0.6-0.273-1.23-0.273-1.891c0-0.432,0.082-0.946,0.245-1.544
			c0.164-0.598,0.333-1.127,0.507-1.59c0.175-0.462,0.394-0.904,0.658-1.324c0.264-0.42,0.573-0.791,0.927-1.11
			c0.354-0.32,0.75-0.574,1.189-0.764c0.439-0.188,0.927-0.283,1.463-0.283c0.438,0,0.845,0.07,1.22,0.211
			c0.375,0.14,0.702,0.337,0.979,0.591c0.277,0.254,0.495,0.56,0.651,0.919c0.157,0.359,0.235,0.761,0.235,1.205
			c0,0.474-0.159,1.005-0.476,1.593c-0.317,0.588-0.687,1.092-1.11,1.512c-0.423,0.42-0.926,0.794-1.509,1.123
			c-0.583,0.329-1.215,0.584-1.896,0.768c0.118,0.207,0.233,0.378,0.347,0.516c0.113,0.137,0.229,0.244,0.347,0.321
			c0.117,0.076,0.241,0.13,0.37,0.16c0.129,0.031,0.269,0.046,0.418,0.046c0.469,0,0.962-0.092,1.482-0.275
			c0.519-0.184,1.025-0.413,1.518-0.688c0.492-0.275,0.957-0.575,1.395-0.899c0.437-0.325,0.809-0.632,1.113-0.923l1.512,1.536
			c-0.688,0.732-1.418,1.38-2.191,1.943c-0.336,0.242-0.697,0.479-1.084,0.712s-0.793,0.44-1.219,0.622
			c-0.426,0.181-0.867,0.326-1.324,0.434C179.269,57.565,178.806,57.619,178.336,57.619z M176.772,52.038
			c0.282,0,0.59-0.07,0.923-0.212c0.333-0.141,0.643-0.323,0.929-0.544c0.286-0.221,0.566-0.519,0.841-0.894
			c0.274-0.374,0.412-0.684,0.412-0.928c0-0.344-0.065-0.626-0.194-0.848c-0.129-0.222-0.288-0.333-0.476-0.333
			c-0.337,0-0.625,0.061-0.865,0.184c-0.239,0.122-0.439,0.281-0.6,0.476c-0.161,0.195-0.291,0.416-0.389,0.664
			c-0.098,0.249-0.211,0.556-0.341,0.923c-0.129,0.366-0.202,0.668-0.218,0.905C176.78,51.667,176.772,51.87,176.772,52.038z"/>
		<path d="M185.843,57.619c-0.42,0-0.812-0.183-1.173-0.548s-0.677-0.855-0.946-1.471c-0.268-0.615-0.479-1.329-0.63-2.14
			c-0.152-0.812-0.228-1.663-0.228-2.555c0-0.767,0.113-1.79,0.338-3.07c0.226-1.28,0.338-1.92,0.338-1.92s0.171-0.639,0.512-1.918
			c0.341-1.278,0.683-2.304,1.027-3.076c0.343-0.772,0.716-1.494,1.118-2.165s0.825-1.256,1.267-1.754s0.903-0.89,1.385-1.175
			c0.481-0.285,0.971-0.427,1.468-0.427c0.362,0,0.661,0.069,0.896,0.207s0.42,0.32,0.555,0.547s0.229,0.483,0.284,0.77
			s0.082,0.579,0.082,0.876c0,0.738-0.087,1.491-0.262,2.256c-0.174,0.766-0.41,1.536-0.707,2.31s-0.64,1.55-1.029,2.328
			c-0.39,0.778-0.796,1.55-1.219,2.315c-0.422,0.766-0.847,1.521-1.273,2.263c-0.427,0.742-0.82,1.468-1.181,2.177
			c-0.039,0.079-0.081,0.181-0.124,0.307s-0.084,0.262-0.123,0.408c-0.04,0.146-0.079,0.301-0.118,0.467
			c-0.04,0.166-0.071,0.327-0.094,0.484v0.166c0,0.205,0.021,0.404,0.064,0.597c0.043,0.193,0.096,0.367,0.159,0.52
			c0.062,0.154,0.129,0.276,0.2,0.367c0.07,0.09,0.137,0.136,0.2,0.136c0.152,0,0.326-0.031,0.522-0.095
			c0.196-0.062,0.404-0.147,0.624-0.254c0.22-0.106,0.446-0.229,0.678-0.366s0.456-0.278,0.672-0.42
			c0.504-0.331,1.032-0.712,1.584-1.146l1.035,2.47c-0.716,0.476-1.424,0.899-2.124,1.27c-0.306,0.156-0.622,0.31-0.947,0.462
			c-0.326,0.152-0.654,0.288-0.984,0.407c-0.33,0.119-0.651,0.214-0.965,0.284C186.41,57.584,186.116,57.619,185.843,57.619z
			 M185.854,48.33c0.353-0.63,0.727-1.339,1.123-2.127s0.77-1.599,1.123-2.435c0.353-0.835,0.658-1.668,0.917-2.5
			c0.258-0.831,0.423-1.605,0.494-2.322c0-0.229-0.006-0.423-0.017-0.585c-0.011-0.162-0.046-0.242-0.105-0.242
			c-0.215,0-0.446,0.148-0.694,0.445s-0.496,0.698-0.744,1.205c-0.248,0.506-0.544,1.33-0.889,2.471s-0.517,1.712-0.517,1.712
			c0,0-0.105,0.53-0.315,1.588C186.02,46.6,185.894,47.529,185.854,48.33z"/>
		<path d="M193.195,57.619c-0.724,0-1.358-0.133-1.905-0.398c-0.546-0.266-1.004-0.621-1.374-1.066s-0.649-0.961-0.837-1.547
			c-0.189-0.586-0.283-1.195-0.283-1.828c0-0.453,0.078-0.996,0.235-1.629s0.328-1.186,0.513-1.658s0.412-0.924,0.683-1.354
			s0.585-0.807,0.942-1.131s0.756-0.582,1.196-0.773c0.44-0.191,0.923-0.287,1.449-0.287c0.474,0,0.912,0.068,1.315,0.205
			c0.403,0.137,0.748,0.326,1.035,0.568c0.286,0.242,0.511,0.529,0.673,0.861s0.243,0.689,0.243,1.072
			c0,0.266-0.038,0.527-0.114,0.785s-0.224,0.561-0.444,0.908c-0.219,0.348-0.433,0.584-0.64,0.709s-0.442,0.188-0.704,0.188
			c-0.395,0-0.65-0.098-0.765-0.293c-0.189-0.305-0.249-0.574-0.179-0.809c0.023-0.125,0.093-0.414,0.21-0.867
			c0.016-0.062,0.02-0.203,0.012-0.422c0-0.188-0.02-0.344-0.059-0.469c-0.039-0.125-0.124-0.188-0.256-0.188
			c-0.319,0-0.591,0.076-0.817,0.229s-0.418,0.352-0.578,0.598c-0.159,0.246-0.317,0.594-0.472,1.043
			c-0.156,0.449-0.267,0.826-0.333,1.131c-0.066,0.305-0.106,0.596-0.122,0.873s-0.023,0.51-0.023,0.697
			c0,0.281,0.025,0.574,0.076,0.879c0.051,0.305,0.152,0.584,0.303,0.838c0.152,0.254,0.348,0.465,0.589,0.633
			s0.552,0.252,0.934,0.252c0.375,0,0.789-0.115,1.242-0.346c0.453-0.23,0.908-0.521,1.365-0.873s0.893-0.738,1.307-1.16
			s0.77-0.82,1.066-1.195l0.809,1.359c-0.586,0.836-1.219,1.582-1.898,2.238c-0.289,0.281-0.604,0.555-0.943,0.82
			s-0.695,0.502-1.066,0.709c-0.371,0.207-0.758,0.375-1.16,0.504C194.015,57.555,193.608,57.619,193.195,57.619z"/>
		<path d="M205.577,48.584c0.227,0.453,0.396,0.932,0.51,1.436s0.17,1.072,0.17,1.705c0,0.461-0.051,0.926-0.152,1.395
			s-0.248,0.922-0.439,1.359s-0.426,0.848-0.703,1.23s-0.594,0.715-0.949,0.996s-0.744,0.504-1.166,0.668s-0.871,0.246-1.348,0.246
			c-0.688,0-1.275-0.15-1.764-0.451s-0.889-0.693-1.201-1.178s-0.541-1.031-0.686-1.641s-0.217-1.227-0.217-1.852
			c0-1.031,0.129-1.92,0.387-2.666s0.627-1.395,1.107-1.945s1.068-0.984,1.764-1.301s1.477-0.475,2.344-0.475
			c0.742,0,1.438,0.115,2.086,0.346s1.256,0.539,1.822,0.926s1.094,0.873,1.582,1.459s0.943,1.145,1.365,1.676l-0.223,1.652
			c-0.211-0.281-0.496-0.586-0.855-0.914s-0.74-0.691-1.143-1.09s-0.799-0.736-1.189-1.014s-0.727-0.51-1.008-0.697L205.577,48.584z
			 M201.956,55.369c0.266,0,0.523-0.135,0.773-0.404s0.469-0.609,0.656-1.02s0.338-0.906,0.451-1.488s0.17-1.1,0.17-1.553
			c0-0.359-0.027-0.693-0.082-1.002s-0.137-0.576-0.246-0.803s-0.25-0.406-0.422-0.539s-0.379-0.199-0.621-0.199
			c-0.32,0-0.625,0.137-0.914,0.41s-0.543,0.623-0.762,1.049s-0.391,0.896-0.516,1.412s-0.188,1.098-0.188,1.746
			c0,0.328,0.031,0.637,0.094,0.926s0.16,0.541,0.293,0.756s0.309,0.387,0.527,0.516S201.651,55.369,201.956,55.369z"/>
		<path d="M213.358,55.492c0-0.102,0.008-0.248,0.023-0.436c0.016-0.188,0.039-0.404,0.07-0.647s0.066-0.5,0.105-0.771
			c0.039-0.271,0.078-0.54,0.117-0.807c0.086-0.627,0.191-1.302,0.316-2.024h-0.176c-0.094,0.118-0.201,0.294-0.322,0.531
			c-0.121,0.235-0.291,0.582-0.51,1.038c-0.219,0.456-0.498,1.047-0.838,1.774c-0.34,0.728-0.779,1.618-1.318,2.672
			c-0.156,0.311-0.338,0.521-0.545,0.631c-0.207,0.11-0.436,0.165-0.686,0.165c-0.32,0-0.578-0.066-0.773-0.199
			c-0.195-0.132-0.346-0.311-0.451-0.535c-0.105-0.224-0.176-0.478-0.211-0.762c-0.035-0.285-0.053-0.579-0.053-0.882
			c0-0.322,0.02-0.704,0.059-1.144s0.09-0.904,0.152-1.392s0.154-1.044,0.275-1.669c0.121-0.625,0.227-1.17,0.316-1.636
			c0.09-0.465,0.182-0.891,0.275-1.277s0.18-0.702,0.258-0.946c0.078-0.252,0.152-0.454,0.223-0.604
			c0.07-0.149,0.15-0.266,0.24-0.349c0.09-0.083,0.197-0.138,0.322-0.166c0.125-0.028,0.285-0.042,0.48-0.042
			c0.297,0,0.529,0.01,0.697,0.03c0.168,0.02,0.293,0.067,0.375,0.142c0.082,0.075,0.131,0.184,0.146,0.325
			c0.016,0.142,0.023,0.335,0.023,0.58c0,0.134-0.006,0.288-0.018,0.461c-0.012,0.174-0.029,0.359-0.053,0.556
			c-0.016,0.197-0.039,0.398-0.07,0.603c-0.055,0.395-0.086,0.599-0.094,0.615c-0.109,0.536-0.223,1.135-0.34,1.798l0.129,0.142
			c0.016-0.023,0.119-0.232,0.311-0.626c0.191-0.395,0.398-0.785,0.621-1.171c0.223-0.387,0.463-0.791,0.721-1.213
			s0.504-0.794,0.738-1.118c0.227-0.323,0.467-0.591,0.721-0.804s0.557-0.319,0.908-0.319c0.328,0,0.609,0.097,0.844,0.29
			c0.234,0.193,0.352,0.467,0.352,0.822c0,0.308-0.02,0.599-0.059,0.875c-0.047,0.354-0.094,0.623-0.141,0.804
			c-0.055,0.205-0.117,0.458-0.188,0.757c-0.055,0.26-0.152,0.635-0.293,1.124c-0.023,0.079-0.047,0.193-0.07,0.343
			c-0.008,0.047-0.012,0.079-0.012,0.095l0.129,0.142c0.016-0.023,0.125-0.23,0.328-0.621c0.203-0.391,0.424-0.779,0.662-1.165
			c0.238-0.387,0.492-0.792,0.762-1.218c0.27-0.426,0.521-0.8,0.756-1.124c0.227-0.315,0.453-0.582,0.68-0.798
			s0.504-0.325,0.832-0.325c0.367,0,0.678,0.097,0.932,0.29c0.254,0.193,0.381,0.467,0.381,0.822c0,0.544-0.027,1.061-0.082,1.549
			c-0.055,0.489-0.137,1.029-0.246,1.621s-0.191,1.13-0.246,1.615s-0.082,0.999-0.082,1.543c0,0.426,0.055,0.773,0.164,1.041
			c0.109,0.269,0.242,0.402,0.398,0.402c0.164,0,0.336-0.035,0.516-0.106c0.18-0.071,0.363-0.162,0.551-0.272
			s0.371-0.238,0.551-0.384s0.352-0.298,0.516-0.456c0.383-0.363,0.762-0.772,1.137-1.23l0.199,2.778
			c-0.344,0.266-0.686,0.54-1.025,0.825s-0.699,0.542-1.078,0.773c-0.379,0.231-0.795,0.421-1.248,0.569s-0.965,0.222-1.535,0.222
			c-0.281,0-0.518-0.09-0.709-0.27c-0.191-0.18-0.346-0.431-0.463-0.752c-0.117-0.322-0.201-0.701-0.252-1.137
			c-0.051-0.437-0.076-0.911-0.076-1.424c0-0.497,0.018-1.023,0.053-1.579c0.035-0.556,0.084-1.118,0.146-1.686h-0.176l-2.379,6.02
			c-0.203,0.326-0.43,0.545-0.68,0.658c-0.25,0.113-0.539,0.169-0.867,0.169c-0.25,0-0.449-0.066-0.598-0.199
			c-0.148-0.132-0.264-0.303-0.346-0.512s-0.137-0.438-0.164-0.688C213.372,55.97,213.358,55.727,213.358,55.492z"/>
		<path d="M227.567,57.619c-0.729,0-1.368-0.135-1.915-0.406c-0.547-0.27-1.003-0.634-1.368-1.091
			c-0.364-0.457-0.638-0.986-0.82-1.586c-0.183-0.6-0.273-1.23-0.273-1.891c0-0.432,0.081-0.946,0.245-1.544
			c0.163-0.598,0.332-1.127,0.507-1.59c0.175-0.462,0.395-0.904,0.658-1.324c0.265-0.42,0.573-0.791,0.927-1.11
			c0.354-0.32,0.75-0.574,1.188-0.764c0.439-0.188,0.927-0.283,1.463-0.283c0.438,0,0.845,0.07,1.221,0.211
			c0.375,0.14,0.702,0.337,0.979,0.591c0.277,0.254,0.495,0.56,0.651,0.919s0.234,0.761,0.234,1.205
			c0,0.474-0.158,1.005-0.476,1.593c-0.317,0.588-0.688,1.092-1.11,1.512c-0.422,0.42-0.926,0.794-1.509,1.123
			s-1.215,0.584-1.896,0.768c0.118,0.207,0.233,0.378,0.347,0.516c0.114,0.137,0.229,0.244,0.348,0.321
			c0.117,0.076,0.241,0.13,0.37,0.16c0.129,0.031,0.269,0.046,0.418,0.046c0.469,0,0.963-0.092,1.482-0.275
			c0.52-0.184,1.025-0.413,1.518-0.688c0.492-0.275,0.957-0.575,1.395-0.899s0.809-0.632,1.113-0.923l1.512,1.536
			c-0.688,0.732-1.418,1.38-2.191,1.943c-0.336,0.242-0.697,0.479-1.084,0.712s-0.793,0.44-1.219,0.622
			c-0.426,0.181-0.867,0.326-1.324,0.434C228.5,57.565,228.036,57.619,227.567,57.619z M226.002,52.038
			c0.282,0,0.59-0.07,0.924-0.212c0.333-0.141,0.643-0.323,0.929-0.544c0.286-0.221,0.566-0.519,0.841-0.894
			c0.274-0.374,0.412-0.684,0.412-0.928c0-0.344-0.064-0.626-0.194-0.848c-0.129-0.222-0.288-0.333-0.477-0.333
			c-0.337,0-0.625,0.061-0.864,0.184c-0.239,0.122-0.439,0.281-0.6,0.476c-0.161,0.195-0.29,0.416-0.389,0.664
			c-0.098,0.249-0.212,0.556-0.341,0.923c-0.13,0.366-0.202,0.668-0.218,0.905C226.01,51.667,226.002,51.87,226.002,52.038z"/>
		<path d="M248.596,54.994c-0.751,0.438-1.42,0.82-2.007,1.148s-1.108,0.602-1.566,0.82s-0.864,0.383-1.221,0.492
			c-0.355,0.109-0.679,0.164-0.968,0.164c-0.591,0-1.111-0.18-1.562-0.539c-0.451-0.359-0.828-0.877-1.131-1.553
			c-0.304-0.676-0.53-1.494-0.682-2.455c-0.152-0.961-0.228-2.043-0.228-3.246c0-0.469,0.02-0.969,0.058-1.5
			c0.039-0.531,0.093-1.059,0.163-1.582c-0.236-0.035-0.419-0.067-0.549-0.098s-0.268-0.061-0.413-0.091
			c-0.146-0.031-0.33-0.063-0.554-0.098c-0.225-0.035-0.549-0.078-0.974-0.13c-0.188-0.026-0.334-0.076-0.437-0.15
			c-0.102-0.074-0.177-0.161-0.224-0.261c-0.048-0.1-0.075-0.205-0.083-0.313c-0.008-0.109-0.012-0.202-0.012-0.281
			c0-0.123,0.077-0.217,0.229-0.282c0.153-0.065,0.35-0.114,0.589-0.146c0.24-0.033,0.503-0.051,0.789-0.055
			c0.287-0.004,0.562-0.002,0.825,0.006s0.499,0.014,0.707,0.018s0.351-0.002,0.43-0.018c0.211-1.052,0.478-2.07,0.801-3.056
			c0.324-0.985,0.687-1.862,1.089-2.629c0.401-0.767,0.84-1.382,1.315-1.846c0.476-0.463,0.975-0.695,1.497-0.695
			c0.337,0,0.644,0.094,0.921,0.281c0.277,0.187,0.514,0.437,0.71,0.749c0.195,0.312,0.346,0.677,0.451,1.095
			s0.158,0.853,0.158,1.305c0,0.375-0.055,0.77-0.164,1.187s-0.258,0.841-0.445,1.273c-0.188,0.432-0.408,0.869-0.663,1.312
			c-0.254,0.443-0.521,0.882-0.803,1.318c0.07-0.026,0.188-0.031,0.353-0.015c0.164,0.016,0.354,0.027,0.568,0.033
			c0.215,0.006,0.447,0.012,0.697,0.019s0.492,0.013,0.727,0.021s0.453,0.016,0.656,0.023s0.371,0.016,0.504,0.023
			c0.156,0.009,0.27,0.096,0.34,0.261c0.07,0.166,0.105,0.374,0.105,0.626c0,0.292-0.078,0.53-0.234,0.713
			c-0.156,0.183-0.329,0.275-0.517,0.275h-4.505c-0.228,0.312-0.457,0.619-0.688,0.92s-0.445,0.572-0.642,0.814
			c-0.031,0.484-0.059,0.961-0.082,1.43c-0.008,0.203-0.016,0.412-0.023,0.627s-0.016,0.428-0.023,0.639s-0.014,0.414-0.018,0.609
			s-0.006,0.375-0.006,0.539c0,0.422,0.039,0.777,0.117,1.066c0.079,0.289,0.192,0.525,0.342,0.709
			c0.148,0.184,0.331,0.316,0.547,0.398s0.457,0.123,0.724,0.123c0.164,0,0.369-0.039,0.616-0.117
			c0.246-0.078,0.516-0.186,0.809-0.322c0.294-0.137,0.603-0.299,0.927-0.486s0.646-0.393,0.962-0.615s0.62-0.457,0.909-0.703
			s0.552-0.498,0.786-0.756V54.994z M244.846,40.154c0-0.085-0.006-0.181-0.018-0.286s-0.037-0.204-0.076-0.298
			c-0.039-0.093-0.101-0.171-0.183-0.233c-0.083-0.062-0.198-0.093-0.347-0.093c-0.204,0-0.41,0.179-0.618,0.535
			c-0.208,0.357-0.408,0.812-0.601,1.367c-0.191,0.554-0.372,1.165-0.541,1.832c-0.168,0.667-0.323,1.315-0.464,1.943
			c0.117,0.012,0.235,0.022,0.353,0.031s0.239,0.019,0.364,0.03c0.235-0.394,0.48-0.82,0.735-1.279s0.484-0.911,0.688-1.354
			s0.373-0.859,0.506-1.245C244.78,40.718,244.846,40.401,244.846,40.154z"/>
		<path d="M254.889,48.584c0.227,0.453,0.396,0.932,0.51,1.436s0.17,1.072,0.17,1.705c0,0.461-0.051,0.926-0.152,1.395
			s-0.248,0.922-0.439,1.359s-0.426,0.848-0.703,1.23s-0.594,0.715-0.949,0.996s-0.744,0.504-1.166,0.668s-0.871,0.246-1.348,0.246
			c-0.688,0-1.275-0.15-1.764-0.451s-0.889-0.693-1.201-1.178s-0.541-1.031-0.686-1.641s-0.217-1.227-0.217-1.852
			c0-1.031,0.129-1.92,0.387-2.666s0.627-1.395,1.107-1.945s1.068-0.984,1.764-1.301s1.477-0.475,2.344-0.475
			c0.742,0,1.438,0.115,2.086,0.346s1.256,0.539,1.822,0.926s1.094,0.873,1.582,1.459s0.943,1.145,1.365,1.676l-0.223,1.652
			c-0.211-0.281-0.496-0.586-0.855-0.914s-0.74-0.691-1.143-1.09s-0.799-0.736-1.189-1.014s-0.727-0.51-1.008-0.697L254.889,48.584z
			 M251.268,55.369c0.266,0,0.523-0.135,0.773-0.404s0.469-0.609,0.656-1.02s0.338-0.906,0.451-1.488s0.17-1.1,0.17-1.553
			c0-0.359-0.027-0.693-0.082-1.002s-0.137-0.576-0.246-0.803s-0.25-0.406-0.422-0.539s-0.379-0.199-0.621-0.199
			c-0.32,0-0.625,0.137-0.914,0.41s-0.543,0.623-0.762,1.049s-0.391,0.896-0.516,1.412s-0.188,1.098-0.188,1.746
			c0,0.328,0.031,0.637,0.094,0.926s0.16,0.541,0.293,0.756s0.309,0.387,0.527,0.516S250.963,55.369,251.268,55.369z"/>
	</g>
	<g>
		<path style="&st4;" d="M196.833,106.218h-5.291c-1.371,0-1.688-0.684-1.74-2.161l-0.58-18.138h-0.111l-7.984,19.141
			c-0.418,1.057-1.105,1.158-1.795,1.158h-1.955c-1.008,0-1.588-0.156-2.119-1.212l-9.148-19.087h-0.105l-0.32,18.666
			c0,1.477-0.686,1.633-1.793,1.633h-4.336c-1.219,0-1.801-0.42-1.801-1.531c0-0.047,0-0.102,0-0.156l1.432-33.315
			c0.051-1.27,0.633-1.692,1.641-1.692h3.807c1.213,0,1.686,0.423,2.166,1.428l11.686,23.905h0.107l10.576-23.905
			c0.422-0.895,1.004-1.428,2.17-1.428h3.699c1.059,0,1.424,0.372,1.479,1.326l1.744,33.736c0,0.055,0,0.102,0,0.156
			C198.259,105.745,197.782,106.218,196.833,106.218z"/>
		<path style="&st4;" d="M231.63,106.218h-26.855c-0.793,0-1.215-0.631-1.215-1.368v-2.011c0-0.738,0.105-1.271,0.58-1.957
			l16.494-24.484l-0.051-0.054H205.88c-0.947,0-1.531-0.42-1.531-1.531v-4.021c0-0.792,0.479-1.27,1.271-1.27h24.955
			c1.111,0,1.486,0.639,1.486,1.428v1.584c0,0.952-0.107,1.855-0.742,2.752L215.03,99.351l0.057,0.049h16.498
			c0.898,0,1.426,0.475,1.426,1.531v3.756C233.011,105.587,232.532,106.218,231.63,106.218z"/>
		<path style="&st4;" d="M268.761,106.218h-5.92c-1.27,0-1.742-0.576-2.062-1.477l-2.113-6.134h-1.906h-9.305h-1.854l-2.115,6.344
			c-0.213,0.69-0.639,1.267-1.59,1.267h-6.023c-0.586,0-0.846-0.365-0.846-0.84c0-0.216,0-0.427,0.107-0.637l12.582-33.893
			c0.314-0.792,0.799-1.326,1.797-1.326h5.443c1.062,0,1.645,0.477,1.908,1.162l12.852,33.686c0.105,0.316,0.156,0.581,0.156,0.792
			C269.872,105.798,269.503,106.218,268.761,106.218z M253.065,81.845c-0.375-1.165-0.695-2.167-0.961-3.067h-0.104
			c-0.268,0.951-0.584,2.008-0.955,3.122l-3.33,10.363h8.674L253.065,81.845z"/>
		<path style="&st4;" d="M295.681,106.218h-20.088c-1.111,0-1.695-0.258-1.695-1.688V71.002c0-0.946,0.475-1.479,1.48-1.479h5.348
			c1.156,0,1.578,0.372,1.578,1.587v28.031h13.484c1.008,0,1.486,0.577,1.486,1.53v4.016
			C297.274,105.853,296.583,106.218,295.681,106.218z"/>
		<path style="&st4;" d="M323.878,106.218h-20.516c-1.225,0-1.752-0.312-1.752-1.633V71.002c0-0.895,0.475-1.479,1.375-1.479h21.045
			c0.848,0,1.32,0.423,1.32,0.951c0,0.054,0,0.108,0,0.162c0,0.048,0,0.048,0,0.105l-0.473,4.283c-0.107,1.11-0.787,1.32-2.064,1.32
			h-12.795v7.876h12.004c1.162,0,1.588,0.588,1.588,1.43v3.864c0,1.056-0.527,1.531-1.531,1.531h-12.061V99.4h13.803
			c0.949,0,1.529,0.426,1.529,1.429v3.913C325.351,105.745,324.878,106.218,323.878,106.218z"/>
		<path style="&st4;" d="M362.214,106.218h-4.49c-0.949,0-1.748-0.365-2.332-1.158l-15.754-20.99h-0.107v20.57
			c0,1.158-0.527,1.578-1.59,1.578h-4.918c-1.211,0-1.744-0.258-1.744-1.531V71.162c0-1.372,0.639-1.639,1.744-1.639h4.447
			c1.055,0,1.584,0.315,2.168,1.113l15.754,21.147h0.105V71.057c0-1.162,0.59-1.534,1.645-1.534h5.131
			c1.369,0,1.475,0.741,1.475,1.639v33.424C363.747,105.96,363.165,106.218,362.214,106.218z"/>
		<path style="&st4;" d="M383.636,106.218h-10.783c-1.059,0-1.697-0.258-1.697-1.633v-33.37c0-1.159,0.322-1.692,1.752-1.692h8.354
			c13.117,0,21.623,4.391,21.623,18.461C402.884,100.671,394.378,106.218,383.636,106.218z M382.526,76.77h-2.959v22.312h3.754
			c5.289,0,10.578-2.273,10.578-11.152C393.899,80.047,389.983,76.77,382.526,76.77z"/>
		<path style="&st4;" d="M423.626,106.909c-10.639,0-16.605-7.558-16.605-18.925c0-11.321,6.396-19.25,16.926-19.25
			c11.045,0,16.6,8.193,16.6,18.932C440.546,99.562,433.562,106.909,423.626,106.909z M423.726,75.87
			c-4.602,0-7.717,4.073-7.717,11.897c0,8.355,2.854,12.005,7.879,12.005c4.656,0,7.664-3.752,7.664-11.95
			C431.552,79.309,428.749,75.87,423.726,75.87z"/>
	</g>
</g>
</svg>
